HIERARCHY
ROOT Hips
{
	OFFSET -3.958830 18.904000 13.208200
	CHANNELS 6 Xposition Yposition Zposition Zrotation Yrotation Xrotation 
	JOINT LHipJoint
	{
		OFFSET 0.000000 0.000000 0.000000
		CHANNELS 3 Zrotation Yrotation Xrotation
		JOINT LeftUpLeg
		{
			OFFSET 1.800000 -1.400000 0.085000
			CHANNELS 3 Zrotation Yrotation Xrotation
			JOINT LeftLeg
			{
				OFFSET 2.215000 -6.000000 0.000000
				CHANNELS 3 Zrotation Yrotation Xrotation
				JOINT LeftFoot
				{
					OFFSET 2.500000 -6.900000 0.000000
					CHANNELS 3 Zrotation Yrotation Xrotation
					JOINT LeftToeBase
					{
						OFFSET 0.200000 -0.500000 1.950000
						CHANNELS 3 Zrotation Yrotation Xrotation
						End Site
						{
							OFFSET 0.000000 0.000000 0.000000
						}
					}
				}
			}
		}
	}
	JOINT RHipJoint
	{
		OFFSET 0.000000 0.000000 0.000000
		CHANNELS 3 Zrotation Yrotation Xrotation
		JOINT RightUpLeg
		{
			OFFSET -1.800000 -1.400000 0.085000
			CHANNELS 3 Zrotation Yrotation Xrotation
			JOINT RightLeg
			{
				OFFSET -2.215000 -6.000000 0.000000
				CHANNELS 3 Zrotation Yrotation Xrotation
				JOINT RightFoot
				{
					OFFSET -2.500000 -6.900000 0.000000
					CHANNELS 3 Zrotation Yrotation Xrotation
					JOINT RightToeBase
					{
						OFFSET -0.200000 -0.500000 1.950000
						CHANNELS 3 Zrotation Yrotation Xrotation
						End Site
						{
							OFFSET 0.000000 0.000000 0.000000
						}
					}
				}
			}
		}
	}
	JOINT LowerBack
	{
		OFFSET 0.000000 0.000000 0.000000
		CHANNELS 3 Zrotation Yrotation Xrotation
		JOINT Spine
		{
			OFFSET -0.087000 1.940000 -0.288900
			CHANNELS 3 Zrotation Yrotation Xrotation
			JOINT Spine1
			{
				OFFSET 0.000000 1.950000 0.060000
				CHANNELS 3 Zrotation Yrotation Xrotation
				JOINT Neck
				{
					OFFSET 0.000000 0.000000 0.000000
					CHANNELS 3 Zrotation Yrotation Xrotation
					JOINT Neck1
					{
						OFFSET 0.000000 1.600000 0.340000
						CHANNELS 3 Zrotation Yrotation Xrotation
						JOINT Head
						{
							OFFSET 0.000000 1.667000 -0.240000
							CHANNELS 3 Zrotation Yrotation Xrotation
							End Site
							{
								OFFSET 0.000000 0.000000 0.000000
							}
						}
					}
				}
				JOINT LeftShoulder
				{
					OFFSET 0.000000 0.000000 0.000000
					CHANNELS 3 Zrotation Yrotation Xrotation
					JOINT LeftArm
					{
						OFFSET 2.700000 1.550000 -0.730000
						CHANNELS 3 Zrotation Yrotation Xrotation
						JOINT LeftForeArm
						{
							OFFSET 5.450000 0.000000 0.000000
							CHANNELS 3 Zrotation Yrotation Xrotation
							JOINT LeftHand
							{
								OFFSET 3.450000 0.000000 0.000000
								CHANNELS 3 Zrotation Yrotation Xrotation
								JOINT LeftHandIndex1
								{
									OFFSET 0.750000 0.000000 0.000000
									CHANNELS 3 Zrotation Yrotation Xrotation
									End Site
									{
										OFFSET 0.000000 0.000000 0.000000
									}
								}
							}
						}
					}
				}
				JOINT RightShoulder
				{
					OFFSET 0.000000 0.000000 0.000000
					CHANNELS 3 Zrotation Yrotation Xrotation
					JOINT RightArm
					{
						OFFSET -2.700000 1.550000 -0.730000
						CHANNELS 3 Zrotation Yrotation Xrotation
						JOINT RightForeArm
						{
							OFFSET -5.450000 0.000000 0.000000
							CHANNELS 3 Zrotation Yrotation Xrotation
							JOINT RightHand
							{
								OFFSET -3.450000 0.000000 0.000000
								CHANNELS 3 Zrotation Yrotation Xrotation
								JOINT RightHandIndex1
								{
									OFFSET -0.750000 0.000000 0.000000
									CHANNELS 3 Zrotation Yrotation Xrotation
									End Site
									{
										OFFSET 0.000000 0.000000 0.000000
									}
								}
							}
						}
					}
				}
			}
		}
	}
}
MOTION
Frames: 8
Frame Time: 0.016667
1.515100 16.360780 -6.766270 -1.164611 -16.859914 0.443099 -15.359795 13.597085 3.001221 9.507912 -0.467064 -6.980832 -9.489096 5.277497 2.991119 0.219373 4.185495 3.143632 0.002190 -0.049680 -0.039600 18.116390 -10.216494 2.325071 -10.858786 0.449265 -13.322502 6.389156 -3.854992 6.997625 0.017504 -2.906896 3.384571 -0.040840 0.161410 -0.000060 -2.959845 -3.495926 -6.680378 2.641685 -1.147802 3.594267 -0.946001 -0.195023 6.337471 -1.146696 -10.104922 -12.415468 -41.483423 25.751657 43.905480 -3.709900 12.809550 11.401200 -17.076776 -2.766397 5.904708 -63.084172 -5.441393 -3.393497 -30.963995 -40.047971 7.616729 -3.638640 3.289562 0.056800 0.072990 -0.057240 0.071040 20.283117 9.494086 5.161063 56.941760 2.936565 -6.586733 11.769227 15.004543 0.011786 2.717813 -1.248154 -0.064090 0.056410 0.039340 0.010750 
1.506050 16.356960 -6.766870 -1.042389 -16.418174 0.490354 -15.361177 13.577948 2.992765 9.501120 -0.487287 -7.133314 -9.593417 5.293714 3.029994 0.219615 4.182986 3.149874 0.004450 -0.044240 -0.032930 18.119885 -10.206818 2.325878 -10.927132 0.422276 -13.200998 6.459233 -3.846267 6.784718 0.013601 -2.918378 3.385430 -0.036850 0.163820 -0.006250 -2.969939 -3.482417 -6.661495 2.654788 -1.241649 3.560189 -1.056954 -0.285622 6.446523 -1.203966 -10.123620 -12.140581 -41.351092 25.496375 44.220013 -3.929100 12.541710 11.238620 -16.587380 -1.966111 5.672737 -63.541625 -5.637340 -3.224327 -31.086468 -40.049121 7.719501 -3.642717 3.275998 0.051770 0.074610 -0.057490 0.073080 19.820057 8.720663 4.838921 57.221385 3.159915 -6.519961 12.646503 15.107239 0.087459 2.721927 -1.246681 -0.065820 0.068030 0.033890 0.012650 
1.480020 16.356080 -6.762080 -1.112407 -15.642520 0.421580 -15.363567 13.546673 2.974555 9.694654 -0.477535 -7.085884 -9.495497 5.263423 2.894262 0.226527 4.171807 3.152173 0.011670 -0.031810 -0.022950 18.126418 -10.194334 2.342993 -10.669861 0.350735 -12.471132 6.552139 -3.825814 6.216603 -0.009058 -2.958567 3.379448 -0.034140 0.156860 -0.011510 -2.984441 -3.445015 -6.652399 2.776931 -1.277956 3.507828 -0.937749 -0.333790 6.651147 -1.202396 -9.778696 -12.066811 -41.106845 26.008274 46.206155 -3.777280 12.676380 11.789210 -16.728984 -1.882161 5.638043 -63.514851 -5.734139 -3.102838 -31.435255 -40.103595 7.890947 -3.638451 3.267394 0.052870 0.070520 -0.047890 0.075440 19.938766 8.372325 4.614468 57.033498 3.399046 -6.293792 12.385802 14.581093 0.060017 2.734116 -1.235430 -0.061930 0.071560 0.024440 0.013360 
1.451010 16.361140 -6.750430 -1.157303 -14.575615 0.242883 -15.373280 13.512808 2.939862 9.945448 -0.441651 -6.899953 -9.312146 5.245606 2.833231 0.226251 4.169609 3.145049 0.020690 -0.022210 -0.010580 18.128468 -10.158977 2.385376 -10.493680 0.243441 -11.368239 6.873768 -3.813646 5.187428 -0.047462 -3.037542 3.357880 -0.032090 0.143410 -0.016640 -2.984944 -3.426064 -6.653943 2.887288 -1.286233 3.453524 -0.675714 -0.357039 6.885777 -1.121015 -9.196331 -12.090503 -40.765027 26.891947 49.230230 -3.327010 12.881910 12.687320 -17.168735 -2.023086 5.589629 -63.394910 -5.855484 -2.990495 -31.191461 -39.725812 7.749221 -3.630699 3.249073 0.067410 0.060380 -0.033450 0.074380 20.248577 8.038739 4.517067 56.499533 3.154934 -6.362959 12.178803 14.554859 0.056952 2.736807 -1.219657 -0.061150 0.072210 0.018090 0.007900 
1.423000 16.361480 -6.751600 -1.109422 -14.049071 0.060763 -15.371870 13.469722 2.909692 9.972872 -0.396558 -6.579704 -9.006462 5.175361 2.630931 0.226423 4.148225 3.144493 0.016550 -0.027080 -0.009550 18.138634 -10.160421 2.415483 -10.480925 0.153156 -10.606288 6.956981 -3.798909 4.467339 -0.072036 -3.101673 3.337256 -0.037640 0.133320 -0.021110 -3.009776 -3.328547 -6.644839 2.984888 -1.052674 3.288585 -0.698421 -0.101115 7.409626 -0.880328 -8.525658 -12.373563 -40.028088 27.745878 52.811379 -2.747360 13.183430 14.184200 -17.220924 -2.671507 5.786687 -63.415339 -6.270785 -2.843117 -30.750602 -40.158626 7.705906 -3.621871 3.242924 0.078810 0.055030 -0.024720 0.069670 19.874194 8.217893 4.663427 56.539868 3.142870 -6.322913 12.213849 14.445754 0.077670 2.742030 -1.211979 -0.062920 0.065170 0.019010 0.002010 
1.391420 16.364450 -6.753970 -0.938777 -13.563938 -0.017123 -15.375224 13.414471 2.890484 10.026247 -0.381169 -6.531167 -9.112527 5.182190 2.578262 0.229254 4.144100 3.139604 0.030790 -0.010610 0.001460 18.144588 -10.149813 2.448070 -10.461382 0.088023 -9.965294 7.032333 -3.751488 3.698331 -0.100581 -3.153719 3.320298 -0.030970 0.120420 -0.024970 -3.020768 -3.238010 -6.640496 2.814902 -0.809753 3.204787 -0.705109 0.164662 7.722867 -0.820842 -8.157637 -12.324620 -39.357351 27.832609 55.354317 -2.248670 12.752680 14.686510 -17.178797 -2.529667 5.672954 -63.417768 -6.567780 -2.667162 -30.781974 -40.341424 7.825476 -3.610027 3.238896 0.087050 0.043880 -0.012650 0.071890 19.703058 7.908673 4.598069 56.705068 3.071762 -6.430836 12.072914 14.846643 0.082582 2.741404 -1.208695 -0.057830 0.065450 0.009630 0.001210 
1.358170 16.357520 -6.764940 -0.939207 -13.059040 -0.007425 -15.385110 13.383786 2.875801 10.366495 -0.409859 -6.836581 -9.212058 5.222317 2.764985 0.219844 4.135510 3.124118 0.049250 0.006830 0.030960 18.134746 -10.140349 2.476421 -10.481740 0.071365 -9.685309 7.470645 -3.800883 3.394229 -0.125699 -3.187754 3.299462 -0.025880 0.091190 -0.024240 -2.993881 -3.184311 -6.652022 2.552820 -0.564424 3.294282 -0.509013 0.394606 8.143266 -0.624502 -7.732284 -12.246624 -37.892559 27.392204 58.224460 -1.977680 12.447050 14.718050 -16.933470 -2.381503 5.520414 -63.798961 -7.131554 -2.457852 -30.794071 -40.698998 7.959604 -3.597326 3.230417 0.103780 0.027790 0.009600 0.062490 19.080604 7.593708 4.572234 57.307874 3.025223 -6.766047 11.864641 15.834719 0.096476 2.735783 -1.202189 -0.049340 0.058980 -0.000830 -0.009480 
1.328800 16.361000 -6.775740 -1.082800 -12.856592 -0.148123 -15.376685 13.351152 2.848628 10.746997 -0.390491 -6.914662 -9.153672 5.267857 3.046106 0.199228 4.132950 3.107617 0.072650 0.029990 0.057830 18.143489 -10.170807 2.504672 -10.163087 0.019969 -9.176146 7.398435 -3.784623 3.057042 -0.158335 -3.206370 3.288258 -0.014070 0.065410 -0.025830 -3.016632 -3.052061 -6.654714 2.668889 -0.275396 3.444033 -0.357795 0.670229 8.633864 -0.392458 -7.125091 -12.304053 -36.230309 27.189265 62.271733 -1.371230 12.091070 14.948600 -16.966798 -2.773683 5.473784 -63.990931 -7.754074 -2.268933 -29.886914 -40.525946 7.608616 -3.583500 3.202488 0.132720 0.009610 0.036460 0.059790 18.680215 7.677029 4.625898 57.499206 3.248110 -6.815721 11.444656 16.307323 0.093750 2.726066 -1.187599 -0.047820 0.063390 -0.010590 -0.021460 
